<?xml version="1.0" standalone="no"?>
<!DOCTYPE svg PUBLIC "-//W3C//DTD SVG 20010904//EN"
 "http://www.w3.org/TR/2001/REC-SVG-20010904/DTD/svg10.dtd">
<svg version="1.0" xmlns="http://www.w3.org/2000/svg"
 width="200.000000pt" height="200.000000pt" viewBox="0 0 200.000000 200.000000"
 preserveAspectRatio="xMidYMid meet">

<g transform="translate(0.000000,200.000000) scale(0.100000,-0.100000)"
fill="#000000" stroke="none">
<path d="M1135 1721 l-280 -281 311 0 c307 0 311 0 345 -23 57 -38 60 -61 57
-437 -3 -310 -4 -337 -22 -363 -26 -39 -66 -57 -127 -57 l-51 0 30 -28 c79
-74 39 -205 -66 -219 -131 -18 -201 137 -101 222 l31 25 -262 0 -262 0 31 -26
c42 -35 56 -87 39 -139 -41 -124 -228 -106 -245 23 -7 50 10 95 45 122 l25 20
-54 0 c-37 0 -65 7 -87 20 -54 33 -62 67 -62 262 l0 173 -216 -215 -216 -215
5 -165 c3 -121 9 -178 22 -212 20 -57 93 -142 146 -168 73 -38 149 -41 879
-38 l705 3 56 26 c71 33 125 87 158 158 l26 56 3 705 c3 730 0 806 -38 879
-26 53 -111 126 -168 146 -34 13 -91 19 -212 22 l-165 5 -280 -281z"/>
</g>
</svg>
